<?xml version="1.0" encoding="UTF-8"?>
<svg width="2560px" height="1600px" viewBox="0 0 2560 1600" xmlns="http://www.w3.org/2000/svg" xmlns:xlink="http://www.w3.org/1999/xlink" version="1.1">
 <!-- Generated by Pixelmator Pro 1.6.4 -->
 <g id="New-Group">
  <defs>
   <path id="Border" d="M629 1283 L1517 1283 1517 317 629 317 Z"/>
  </defs>
  <defs>
   <path id="stroke-path" d="M1519.5 314.5 L626.5 314.5 626.5 1285.5 1519.5 1285.5 Z"/>
  </defs>
  <use id="Border-1" stroke="#000000" stroke-opacity="1" stroke-linecap="round" fill="none" stroke-width="5" xlink:href="#stroke-path"/>
  <path id="Rectangle-Copy-4" d="M629 1283 L1517 1283 1517 1145 629 1145 Z" fill="#ff2020" fill-opacity="1" stroke="none"/>
  <path id="Rectangle-Copy-2" d="M629 1145 L1517 1145 1517 1007 629 1007 Z" fill="#ffffff" fill-opacity="1" stroke="none"/>
  <path id="Rectangle-Copy-3" d="M629 1007 L1517 1007 1517 869 629 869 Z" fill="#ff2020" fill-opacity="1" stroke="none"/>
  <path id="Rectangle-Copy-1" d="M629 869 L1517 869 1517 731 629 731 Z" fill="#ffffff" fill-opacity="1" stroke="none"/>
  <path id="Rectangle-Copy" d="M629 731 L1517 731 1517 593 629 593 Z" fill="#ff2020" fill-opacity="1" stroke="none"/>
  <path id="Rectangle" d="M629 593 L1517 593 1517 317 629 317 Z" fill="#1e16be" fill-opacity="1" stroke="none"/>
  <defs>
   <path id="Ellipse" d="M834 455 C834 406.399 794.601 367 746 367 697.399 367 658 406.399 658 455 658 503.601 697.399 543 746 543 794.601 543 834 503.601 834 455 Z"/>
  </defs>
  <defs>
   <path id="stroke-path-1" d="M751.734 544.328 L758.516 543.641 767.266 541.953 773.656 540.141 781.828 537.047 787.703 534.219 795.125 529.828 800.406 526.078 806.953 520.531 812.969 514.391 817.078 509.406 821.969 502.344 825.219 496.688 830.422 484.766 832.938 476.297 834.297 469.75 835.141 463.016 835.5 454.984 834.922 444.734 832.938 433.719 829.688 423.203 825.203 413.297 819.594 404.078 812.969 395.625 803.766 386.641 795.141 380.203 787.703 375.797 781.813 372.953 769.438 368.594 760.734 366.703 754 365.859 747.141 365.516 740.25 365.688 733.484 366.375 726.875 367.547 720.422 369.203 712.172 372.125 706.203 374.813 698.672 379.016 693.297 382.656 686.609 388.031 680.469 394.031 676.25 398.906 671.188 405.859 667.813 411.406 663.953 419.156 661.547 425.297 658.094 438.047 656.844 446.984 656.5 453.859 656.672 460.75 657.359 467.516 658.531 474.141 660.844 482.656 663.109 488.844 666.781 496.703 670.016 502.344 674.906 509.406 679.016 514.391 685.031 520.531 691.578 526.078 696.859 529.828 704.281 534.219 710.156 537.047 718.328 540.141 724.734 541.969 737.953 544.156 744.844 544.5 Z"/>
  </defs>
  <use id="Ellipse-1" stroke="#ffffff" stroke-opacity="1" stroke-linecap="round" fill="none" stroke-width="3" xlink:href="#stroke-path-1"/>
  <defs>
   <path id="Ellipse-Copy" d="M1052 455 C1052 406.399 1012.601 367 964 367 915.399 367 876 406.399 876 455 876 503.601 915.399 543 964 543 1012.601 543 1052 503.601 1052 455 Z"/>
  </defs>
  <defs>
   <path id="stroke-path-2" d="M974.281 543.922 L983.109 542.469 989.563 540.813 997.813 537.891 1003.781 535.203 1011.313 531 1016.688 527.359 1023.375 521.984 1029.516 515.984 1033.734 511.109 1038.797 504.156 1042.172 498.609 1046.031 490.859 1048.438 484.734 1050.938 476.297 1052.297 469.75 1053.141 463.016 1053.5 454.984 1052.922 444.734 1051.453 435.891 1049.125 427.344 1045.141 417.188 1041.078 409.516 1035.078 400.609 1029.516 394.031 1021.75 386.641 1014.922 381.406 1009.484 377.906 1001.828 373.859 995.797 371.313 987.438 368.594 980.922 367.094 972.016 365.859 965.141 365.516 958.25 365.688 951.484 366.375 944.859 367.547 936.344 369.859 930.156 372.125 922.297 375.797 916.656 379.031 909.594 383.922 904.609 388.031 898.469 394.047 892.922 400.594 889.172 405.875 884.781 413.297 881.953 419.172 878.859 427.344 877.047 433.734 875.359 442.484 874.672 449.266 874.5 456.156 874.844 463.016 875.688 469.75 877.578 478.438 879.563 484.75 882.844 492.828 885.813 498.625 890.391 505.922 894.25 511.125 899.938 517.531 906.234 523.375 911.313 527.375 918.5 532.094 924.219 535.203 932.172 538.703 938.438 540.813 947.031 542.906 953.719 543.922 960.531 544.453 967.453 544.453 Z"/>
  </defs>
  <use id="Ellipse-Copy-1" stroke="#ffffff" stroke-opacity="1" stroke-linecap="round" fill="none" stroke-width="3" xlink:href="#stroke-path-2"/>
  <defs>
   <path id="Ellipse-Copy-1" d="M1270 455 C1270 406.399 1230.601 367 1182 367 1133.399 367 1094 406.399 1094 455 1094 503.601 1133.399 543 1182 543 1230.601 543 1270 503.601 1270 455 Z"/>
  </defs>
  <use id="Ellipse-Copy-1-1" xlink:href="#Ellipse-Copy-1" fill="#ffffff" fill-opacity="1" stroke="none"/>
  <defs>
   <path id="stroke-path-3" d="M1190.016 544.156 L1198.922 542.922 1205.438 541.422 1213.797 538.703 1219.828 536.156 1227.484 532.109 1232.922 528.609 1239.75 523.391 1244.531 519.047 1250.359 512.766 1255.594 505.938 1260.172 498.625 1264.031 490.859 1266.438 484.734 1268.938 476.297 1270.297 469.75 1271.141 463.016 1271.5 455 1271.141 446.984 1269.891 438.063 1267.797 429.453 1264.875 421.188 1261.203 413.297 1256.797 405.859 1251.734 398.906 1246.047 392.484 1239.75 386.641 1234.672 382.641 1227.484 377.922 1221.766 374.813 1213.813 371.313 1207.547 369.203 1198.953 367.109 1192.25 366.078 1183.156 365.516 1176.25 365.688 1169.469 366.375 1160.719 368.063 1154.328 369.875 1146.156 372.969 1140.281 375.797 1132.859 380.188 1127.578 383.938 1121.031 389.484 1115.016 395.625 1109.625 402.313 1104.906 409.516 1101.797 415.234 1098.297 423.188 1096.188 429.453 1094.094 438.047 1093.078 444.734 1092.547 451.547 1092.547 458.469 1093.078 465.297 1094.531 474.125 1096.188 480.578 1099.109 488.828 1101.797 494.797 1106 502.328 1109.641 507.703 1115.016 514.391 1121.031 520.531 1127.594 526.078 1134.656 530.984 1140.297 534.219 1148.156 537.891 1154.344 540.156 1162.859 542.469 1169.484 543.641 1176.25 544.328 1183.141 544.5 Z"/>
  </defs>
  <use id="Ellipse-Copy-1-2" stroke="#ffffff" stroke-opacity="1" stroke-linecap="round" fill="none" stroke-width="3" xlink:href="#stroke-path-3"/>
  <defs>
   <path id="Ellipse-Copy-2" d="M1488 455 C1488 406.399 1448.601 367 1400 367 1351.399 367 1312 406.399 1312 455 1312 503.601 1351.399 543 1400 543 1448.601 543 1488 503.601 1488 455 Z"/>
  </defs>
  <defs>
   <path id="stroke-path-4" d="M1405.75 544.328 L1414.719 543.313 1421.281 541.953 1429.719 539.453 1435.844 537.047 1443.594 533.188 1449.141 529.813 1456.094 524.75 1462.516 519.063 1468.359 512.766 1473.594 505.938 1478.172 498.625 1482.031 490.859 1484.438 484.734 1486.938 476.297 1488.297 469.75 1489.141 463.016 1489.5 455 1489.141 447 1488.297 440.266 1486.938 433.719 1484.438 425.281 1482.031 419.156 1478.172 411.406 1474.797 405.859 1469.734 398.906 1464.047 392.484 1457.75 386.641 1450.922 381.406 1445.484 377.906 1437.828 373.859 1431.797 371.313 1423.438 368.594 1416.922 367.094 1408.016 365.859 1401.141 365.516 1394.234 365.688 1385.266 366.703 1378.703 368.063 1370.266 370.563 1364.141 372.969 1356.391 376.828 1350.844 380.203 1343.891 385.266 1337.469 390.953 1331.625 397.25 1326.391 404.078 1322.891 409.516 1318.844 417.172 1316.297 423.203 1313.578 431.563 1312.078 438.078 1310.844 446.984 1310.5 453.859 1310.672 460.766 1311.688 469.734 1313.047 476.297 1315.547 484.734 1317.953 490.859 1321.813 498.609 1325.188 504.156 1330.25 511.109 1335.938 517.531 1342.234 523.375 1349.063 528.609 1354.5 532.109 1362.156 536.156 1368.188 538.703 1376.547 541.422 1383.063 542.922 1391.969 544.156 1398.844 544.5 Z"/>
  </defs>
  <use id="Ellipse-Copy-2-1" stroke="#ffffff" stroke-opacity="1" stroke-linecap="round" fill="none" stroke-width="3" xlink:href="#stroke-path-4"/>
 </g>
</svg>
