<?xml version="1.0" encoding="UTF-8"?>
<svg width="1091px" height="510px" viewBox="0 0 1091 510" xmlns="http://www.w3.org/2000/svg" xmlns:xlink="http://www.w3.org/1999/xlink" version="1.1">
 <!-- Generated by Pixelmator Pro 1.6.4 -->
 <path id="Voter--Quotient" d="M1016.25 461.956 C1029.75 461.956 1040.5 455.206 1063 437.956 L1085.75 420.956 1072.5 404.956 1023.5 439.706 1018.5 437.206 1032.75 351.706 1085 351.706 1088.5 329.956 1036.5 329.956 1044 284.456 1019 284.456 1013.5 316.956 C1011.75 326.706 1007.5 329.956 998 329.956 L974 329.956 970.5 351.706 1006 351.706 993.75 425.706 C993 430.206 992.25 434.706 992.25 437.706 992.25 452.706 1000.25 461.956 1016.25 461.956 Z M853 458.956 L864.5 389.956 C866.75 376.456 874.75 365.706 878 361.706 884.5 353.706 892.25 348.706 902.25 348.706 915.5 348.706 921 357.706 921 369.456 921 373.706 920.25 379.456 919.5 383.956 L907 458.956 933.75 458.956 946 384.956 C947.5 376.206 948 370.206 948 364.206 948 342.206 936 326.956 913 326.956 892.25 326.956 880 339.956 870.5 360.456 L869.25 360.456 874.5 329.956 847.75 329.956 826.25 458.956 Z M747.25 461.956 C776.75 461.956 794 447.706 808 425.956 L790.5 414.706 C776.5 433.706 767 440.456 750.25 440.456 727.25 440.456 721 427.456 721 411.206 721 410.456 721 408.456 721.25 406.206 800 403.706 812.5 381.206 812.5 361.956 812.5 338.956 792.75 326.956 767 326.956 723.75 326.956 694 359.456 694 406.706 694 442.706 712.25 461.956 747.25 461.956 Z M764.5 347.206 C780 347.206 786 354.206 786 363.706 786 374.456 779.25 387.206 723.25 389.456 L723.75 386.706 C728 360.206 742.75 347.206 764.5 347.206 Z M625 306.206 C637.75 306.206 643 300.706 644.5 291.706 645 288.706 645.5 285.956 645.5 283.956 645.5 277.206 641.25 271.706 628.5 271.706 615.75 271.706 610.5 277.206 609 286.206 608.5 289.206 608 291.956 608 293.956 608 300.706 612.25 306.206 625 306.206 Z M610.5 461.956 C624.25 461.956 635.5 454.456 656.25 433.706 L675.75 414.206 660.5 400.456 617.25 440.206 612.25 438.206 633.25 329.956 562.5 329.956 559 351.706 602.5 351.706 588.25 425.206 C587.25 431.206 586.5 435.206 586.5 439.456 586.5 452.706 594.75 461.956 610.5 461.956 Z M466.25 461.956 C479.75 461.956 490.5 455.206 513 437.956 L535.75 420.956 522.5 404.956 473.5 439.706 468.5 437.206 482.75 351.706 535 351.706 538.5 329.956 486.5 329.956 494 284.456 469 284.456 463.5 316.956 C461.75 326.706 457.5 329.956 448 329.956 L424 329.956 420.5 351.706 456 351.706 443.75 425.706 C443 430.206 442.25 434.706 442.25 437.706 442.25 452.706 450.25 461.956 466.25 461.956 Z M331.25 461.956 C371.5 461.956 401.25 431.206 401.25 381.956 401.25 348.956 382.5 326.956 348.75 326.956 308.5 326.956 278.75 357.706 278.75 406.956 278.75 439.956 297.5 461.956 331.25 461.956 Z M333 440.706 C316.25 440.706 305.5 431.706 305.5 412.706 305.5 409.706 306 405.706 306.75 400.956 L309.5 384.456 C313.25 361.956 326.25 348.206 347 348.206 363.75 348.206 374.5 357.206 374.5 376.206 374.5 379.206 374 383.206 373.25 387.956 L370.5 404.456 C366.75 426.956 353.75 440.706 333 440.706 Z M218.25 458.956 L245 458.956 266.5 329.956 239.75 329.956 228.25 398.956 C226 412.456 218 423.206 214.75 427.206 208.25 435.206 200.5 440.206 190.5 440.206 177.25 440.206 171.75 431.206 171.75 419.456 171.75 415.206 172.5 409.456 173.25 404.956 L185.75 329.956 159 329.956 146.75 403.956 C145.25 412.706 144.75 418.706 144.75 424.706 144.75 446.706 156.75 461.956 179.75 461.956 200.5 461.956 212.75 448.956 222.25 428.456 L223.5 428.456 Z M88.5 506.956 C98.5 506.956 104.5 502.706 117 489.956 L130.75 475.956 116.5 463.206 93 485.206 89.5 484.206 73.5 459.956 C119.75 448.956 134.75 388.706 134.75 343.456 134.75 304.206 118 281.456 80.5 281.456 21.25 281.456 2.75 349.456 2.75 399.956 2.75 435.456 16.5 457.206 46 461.206 L68.25 494.206 C73 501.456 78.75 506.956 88.5 506.956 Z M57.75 438.956 C38.5 438.956 30.25 426.706 30.25 405.706 30.25 399.706 30.75 393.456 32 385.956 L36.75 357.206 C42.25 324.206 55.5 304.456 79.75 304.456 99 304.456 107.25 316.706 107.25 337.706 107.25 343.706 106.75 349.956 105.5 357.456 L100.75 386.206 C95.25 419.206 82 438.956 57.75 438.956 Z" fill="none" stroke="#000000" stroke-width="5" stroke-opacity="1" stroke-linejoin="round"/>
 <path id="Voter--Quotient-1" d="M193.75 180 C160 180 141.25 158 141.25 125 141.25 75.75 171 45 211.25 45 245 45 263.75 67 263.75 100 263.75 149.25 234 180 193.75 180 Z M328.75 180 C312.75 180 304.75 170.75 304.75 155.75 304.75 152.75 305.5 148.25 306.25 143.75 L318.5 69.75 283 69.75 286.5 48 310.5 48 C320 48 324.25 44.75 326 35 L331.5 2.5 356.5 2.5 349 48 401 48 397.5 69.75 345.25 69.75 331 155.25 336 157.75 385 123 398.25 139 375.5 156 C353 173.25 342.25 180 328.75 180 Z M472.25 180 C437.25 180 419 160.75 419 124.75 419 77.5 448.75 45 492 45 517.75 45 537.5 57 537.5 80 537.5 99.25 525 121.75 446.25 124.25 446 126.5 446 128.5 446 129.25 446 145.5 452.25 158.5 475.25 158.5 492 158.5 501.5 151.75 515.5 132.75 L533 144 C519 165.75 501.75 180 472.25 180 Z M35 177 L14.75 2.5 42.75 2.5 51.5 90 57.5 150.25 59.25 150.25 85 90 122 2.5 151.5 2.5 73.5 177 35 177 Z M581.25 177 L599 69.75 565.75 69.75 569.5 48 629.5 48 623.25 84.5 624.75 84.5 C634.5 62.25 648.25 48 673.25 48 L688.25 48 683.75 74.75 661.25 74.75 C647 74.75 638.5 78.5 631.5 87 628.25 91 620.75 100.5 618.75 112.5 L608 177 581.25 177 Z M195.5 158.75 C216.25 158.75 229.25 145 233 122.5 L235.75 106 C236.5 101.25 237 97.25 237 94.25 237 75.25 226.25 66.25 209.5 66.25 188.75 66.25 175.75 80 172 102.5 L169.25 119 C168.5 123.75 168 127.75 168 130.75 168 149.75 178.75 158.75 195.5 158.75 Z M448.25 107.5 C504.25 105.25 511 92.5 511 81.75 511 72.25 505 65.25 489.5 65.25 467.75 65.25 453 78.25 448.75 104.75 L448.25 107.5 Z" fill="none" stroke="#000000" stroke-width="5" stroke-opacity="1" stroke-linejoin="round"/>
 <path id="Rectangle-Copy" d="M42 232 L1089 232 1089 225 42 225 Z" fill="#000000" fill-opacity="1" stroke="none"/>
</svg>
